<?xml version="1.0" encoding="utf-8"?>
<svg viewBox="0 0 500 500" xmlns="http://www.w3.org/2000/svg">
  <g id="_x34_5" transform="matrix(1, 0, 0, 1, -162.26416, -51.88678)">
    <g>
      <g/>
      <g>
        <path style="fill-rule:evenodd;clip-rule:evenodd;fill:#310B00;" d="M312.099,355.367c0,0,15.065-9.482,15.065-25.047 c0,0,8.451,7.282,10.483,5.249c2.033-2.033,8.966-30.964-34.166-50.247c0,0,19.783-0.167,34.166,9.725 c16.521,11.378,28.764,12.273,38.064,7.358c0,0-1.517-8.799-10.149-10.65c0,0,14.655,2.807,20.982-2.715 c2.564-2.215,7.358-4.233,8.739-4.536c1.365-0.304,4.718-1.881,4.718-1.881s-3.352-1.593-4.718-1.897 c-1.366-0.303-6.175-2.306-8.739-4.536c-6.326-5.522-20.982-2.7-20.982-2.7c8.632-1.866,10.149-10.666,10.149-10.666 c-9.3-4.9-21.543-4.005-38.064,7.358c-14.382,9.907-34.166,9.725-34.166,9.725c43.131-19.282,36.198-48.213,34.166-50.246 c-2.033-2.018-10.483,5.249-10.483,5.249c0-15.565-15.065-25.032-15.065-25.032c2.715,4.733-4.051,14.2-4.051,21.816 c0,3.049,1.684,6.266,1.684,6.266c-7.616-5.75-16.4,2.2-16.4,2.2s12,3.717,12,18.099c0,21.664-29.766,21.482-29.766,21.482 c7.1,0,15.05-9.634,15.05-17.933c0-9.633-7.783-19.449-7.783-29.265c0-3.717,1.35-7.1,1.35-7.1s-25.199,18.266-25.199,28.082 c0,5.917,1.35,10.316,6.767,10.316c5.416,0,8.116-3.383,8.116-3.383s-5.583-2.534-5.583-6.934c0-4.399,5.75-8.632,5.75-8.632 c0,6.933,7.449,9.482,7.449,17.432c0,3.884-3.717,12.683-13.882,12.683c-19.282,0-20.132-14.215-20.132-14.215 c0,3.899-15.899,21.831-21.649,21.831c5.75,0,21.649,17.932,21.649,21.816c0,0,0.85-14.215,20.132-14.215 c10.165,0,13.882,8.799,13.882,12.698c0,7.95-7.449,10.483-7.449,17.417c0,0-5.75-4.218-5.75-8.617 c0-4.399,5.583-6.948,5.583-6.948c0,0.015-2.7-3.383-8.116-3.383c-5.416,0-6.767,4.4-6.767,10.331 c0,9.815,25.199,28.082,25.199,28.082s-1.35-3.383-1.35-7.115c0-9.8,7.783-19.616,7.783-29.265c0-8.283-7.95-17.932-15.05-17.932 c0,0,29.766-0.167,29.766,21.482c0,14.382-12,18.114-12,18.114s8.784,7.95,16.4,2.2c0,0-1.684,3.201-1.684,6.25 C308.048,341.151,314.814,350.633,312.099,355.367L312.099,355.367z"/>
        <path style="fill-rule:evenodd;clip-rule:evenodd;fill:#310B00;" d="M472.746,370.507c0,0-9.482-15.049-25.049-15.049 c0,0,7.283-8.466,5.25-10.499c-2.033-2.033-30.965-8.966-50.246,34.18c0,0-0.168-19.798,9.725-34.18 c11.377-16.521,12.273-28.75,7.357-38.064c0,0-8.785,1.532-10.65,10.149c0,0,2.807-14.64-2.715-20.981 c-2.215-2.549-4.234-7.358-4.537-8.723c-0.303-1.365-1.881-4.718-1.881-4.718s-1.593,3.353-1.896,4.718 c-0.303,1.365-2.306,6.174-4.536,8.723c-5.522,6.342-2.7,20.981-2.7,20.981c-1.866-8.632-10.665-10.149-10.665-10.149 c-4.9,9.314-4.005,21.543,7.358,38.064c9.907,14.382,9.74,34.18,9.74,34.18c-19.297-43.146-48.228-36.198-50.247-34.18 c-2.033,2.033,5.234,10.499,5.234,10.499c-15.565,0-25.032,15.049-25.032,15.049c4.734-2.7,14.215,4.066,21.816,4.066 c3.064,0,6.266-1.699,6.266-1.699c-5.75,7.616,2.2,16.415,2.2,16.415s3.717-12.015,18.099-12.015 c21.664,0,21.481,29.781,21.481,29.781c0.016-7.1-9.633-15.05-17.932-15.05c-9.634-0.015-19.449,7.783-29.265,7.783 c-3.717-0.015-7.1-1.366-7.1-1.366s18.266,25.215,28.082,25.215c5.917,0,10.316-1.351,10.316-6.767 c0-5.416-3.383-8.116-3.383-8.116s-2.534,5.583-6.933,5.583c-4.4,0-8.632-5.766-8.632-5.766c6.933,0,9.482-7.434,17.432-7.434 c3.884,0,12.683,3.718,12.683,13.867c0,19.281-14.215,20.131-14.215,20.131c3.899,0,21.831,15.915,21.831,21.665 c0-5.766,17.932-21.665,21.817-21.665c0,0-14.215-0.85-14.215-20.131c0.014-10.149,8.799-13.867,12.697-13.867 c7.949,0,10.482,7.434,17.432,7.434c0,0-4.233,5.766-8.633,5.766c-4.398,0-6.932-5.583-6.932-5.583s-3.385,2.7-3.385,8.116 c0,5.416,4.385,6.767,10.316,6.767c9.816,0,28.082-25.215,28.082-25.215s-3.383,1.366-7.1,1.366 c-9.816-0.015-19.633-7.783-29.281-7.783c-8.283-0.015-17.932,7.95-17.932,15.05c0,0-0.166-29.781,21.498-29.781 c14.381,0,18.098,12.015,18.098,12.015s7.951-8.799,2.201-16.415c0,0,3.201,1.699,6.25,1.699 C458.529,374.573,468.012,367.807,472.746,370.507L472.746,370.507z"/>
        <path style="fill-rule:evenodd;clip-rule:evenodd;fill:#310B00;" d="M487.887,355.367c0,0-15.051-9.482-15.051-25.047 c0,0-8.465,7.282-10.498,5.249c-2.033-2.033-8.967-30.964,34.18-50.247c0,0-19.797-0.167-34.18,9.725 c-16.522,11.378-28.764,12.273-38.065,7.358c0,0,1.518-8.799,10.15-10.65c0,0-14.641,2.807-20.982-2.715 c-2.549-2.215-7.357-4.233-8.723-4.536c-1.381-0.304-4.719-1.881-4.719-1.881s3.352-1.593,4.719-1.897 c1.365-0.303,6.174-2.306,8.723-4.536c6.342-5.522,20.982-2.7,20.982-2.7c-8.633-1.866-10.15-10.666-10.15-10.666 c9.301-4.9,21.543-4.005,38.065,7.358c14.383,9.907,34.18,9.725,34.18,9.725c-43.146-19.282-36.213-48.213-34.18-50.246 c2.033-2.018,10.498,5.249,10.498,5.249c0-15.565,15.051-25.032,15.051-25.032c-2.701,4.733,4.065,14.2,4.065,21.816 c0,3.049-1.699,6.266-1.699,6.266c7.617-5.75,16.416,2.2,16.416,2.2s-12.016,3.717-12.016,18.099 c0,21.664,29.781,21.482,29.781,21.482c-7.102,0-15.066-9.634-15.066-17.933c0-9.633,7.783-19.449,7.783-29.265 c0-3.717-1.35-7.1-1.35-7.1s25.215,18.266,25.215,28.082c0,5.917-1.352,10.316-6.768,10.316c-5.416,0-8.131-3.383-8.131-3.383 s5.582-2.534,5.582-6.934c0-4.399-5.75-8.632-5.75-8.632c0,6.933-7.434,9.482-7.434,17.432c0,3.884,3.717,12.683,13.867,12.683 c19.281,0,20.133-14.215,20.133-14.215c0,3.899,15.898,21.831,21.664,21.831c-5.766,0-21.664,17.932-21.664,21.816 c0,0-0.852-14.215-20.133-14.215c-10.15,0-13.867,8.799-13.867,12.698c0,7.95,7.434,10.483,7.434,17.417 c0,0,5.75-4.218,5.75-8.617c0-4.399-5.582-6.948-5.582-6.948c0,0.015,2.715-3.383,8.131-3.383c5.416,0,6.768,4.4,6.768,10.331 c0,9.815-25.215,28.082-25.215,28.082s1.35-3.383,1.35-7.115c0-9.8-7.783-19.616-7.783-29.265 c0-8.283,7.965-17.932,15.066-17.932c0,0-29.781-0.167-29.781,21.482c0,14.382,12.016,18.114,12.016,18.114 s-8.799,7.95-16.416,2.2c0,0,1.699,3.201,1.699,6.25C491.951,341.151,485.185,350.633,487.887,355.367L487.887,355.367z"/>
        <path style="fill-rule:evenodd;clip-rule:evenodd;fill:#310B00;" d="M472.746,194.736c0,0-9.482,15.05-25.049,15.05 c0,0,7.283,8.465,5.25,10.483c-2.033,2.033-30.965,8.966-50.246-34.165c0,0-0.168,19.783,9.725,34.165 c11.377,16.521,12.273,28.764,7.357,38.079c0,0-8.785-1.532-10.65-10.165c0,0,2.807,14.655-2.715,20.982 c-2.215,2.563-4.234,7.373-4.537,8.738c-0.303,1.365-1.881,4.718-1.881,4.718s-1.593-3.353-1.896-4.718 c-0.303-1.365-2.306-6.175-4.536-8.738c-5.522-6.327-2.7-20.982-2.7-20.982c-1.866,8.633-10.665,10.165-10.665,10.165 c-4.9-9.315-4.005-21.558,7.358-38.079c9.907-14.367,9.74-34.165,9.74-34.165c-19.297,43.131-48.228,36.198-50.247,34.165 c-2.033-2.018,5.234-10.483,5.234-10.483c-15.565,0-25.032-15.065-25.032-15.065c4.734,2.715,14.215-4.051,21.816-4.051 c3.064,0,6.266,1.684,6.266,1.684c-5.75-7.601,2.2-16.4,2.2-16.4s3.717,12,18.099,12c21.664,0,21.481-29.765,21.481-29.765 c0.016,7.1-9.633,15.049-17.932,15.049c-9.634,0-19.449-7.783-29.265-7.783c-3.717,0-7.1,1.35-7.1,1.35 s18.266-25.199,28.082-25.199c5.917,0,10.316,1.351,10.316,6.767c0,5.416-3.383,8.117-3.383,8.117s-2.534-5.583-6.933-5.583 c-4.4,0-8.632,5.75-8.632,5.75c6.933,0,9.482,7.449,17.432,7.449c3.884,0,12.683-3.717,12.683-13.866 c0-19.298-14.215-20.148-14.215-20.148c3.899,0,21.831-15.899,21.831-21.649c0,5.749,17.932,21.649,21.817,21.649 c0,0-14.215,0.85-14.215,20.148c0.014,10.149,8.799,13.866,12.697,13.866c7.949,0,10.482-7.449,17.432-7.449 c0,0-4.233-5.75-8.633-5.75c-4.398,0-6.932,5.583-6.932,5.583s-3.385-2.701-3.385-8.117c0-5.416,4.385-6.767,10.316-6.767 c9.816,0,28.082,25.199,28.082,25.199s-3.383-1.35-7.1-1.35c-9.816,0-19.633,7.783-29.281,7.783 c-8.283,0-17.932-7.95-17.932-15.049c0,0-0.166,29.765,21.498,29.765c14.381,0,18.098-12,18.098-12s7.951,8.799,2.201,16.4 c0,0,3.201-1.684,6.25-1.684C458.529,190.67,468.012,197.436,472.746,194.736L472.746,194.736z"/>
        <polygon style="fill-rule:evenodd;clip-rule:evenodd;fill:#310B00;" points="498.459,339.467 449.23,367.898 399.999,396.314 &#10;&#9;&#9;&#9;&#9;350.77,367.898 301.524,339.467 301.524,282.622 301.524,225.775 350.77,197.345 399.999,168.915 449.23,197.345 &#10;&#9;&#9;&#9;&#9;498.459,225.775 498.459,282.622 &#9;&#9;&#9;"/>
        <polygon style="fill-rule:evenodd;clip-rule:evenodd;fill:#FEFEFE;" points="490.146,334.674 445.072,360.692 399.999,386.725 &#10;&#9;&#9;&#9;&#9;354.927,360.692 309.838,334.674 309.838,282.622 309.838,230.57 354.927,204.551 399.999,178.518 445.072,204.551 &#10;&#9;&#9;&#9;&#9;490.146,230.57 490.146,282.622 &#9;&#9;&#9;"/>
      </g>
    </g>
    <g>
      <path style="fill:#310B00;" d="M364.141,300.93h2.291c0.464,8.501,3.885,15.507,10.26,21.018 c6.241,5.446,13.413,8.168,21.516,8.168c6.241,0,11.321-1.759,15.24-5.279c3.918-3.518,5.877-7.735,5.877-12.65 c0-5.18-1.893-9.196-5.678-12.053c-3.652-2.789-10.857-5.942-21.615-9.463c-8.633-2.854-14.776-5.212-18.428-7.072 c-4.25-2.191-7.57-5.146-9.961-8.865c-2.59-3.785-3.885-8.034-3.885-12.75c0-5.245,1.759-10.392,5.279-15.439 c-0.797,2.59-1.195,4.849-1.195,6.773c0,5.18,1.228,9.729,3.685,13.646c2.523,4.052,5.644,7.106,9.363,9.164 c3.718,2.126,9.927,4.55,18.627,7.271c11.355,3.454,19.557,7.271,24.604,11.455c4.847,4.052,7.271,9.497,7.271,16.336 c0,6.708-2.524,12.784-7.57,18.228c-5.114,5.513-12.75,8.267-22.91,8.267c-4.118,0-9.829-0.765-17.133-2.291 c-6.375-1.327-11.156-2.024-14.344-2.092l-0.697-0.797c0.065-1.128,0.1-2.59,0.1-4.383c0-2.124-0.199-5.411-0.598-9.861 c-0.333-4.448-0.498-7.77-0.498-9.961C363.742,305.446,363.874,302.989,364.141,300.93z M434.465,259.293h-2.092 c-0.067-7.702-3.122-13.413-9.164-17.133c-5.911-3.651-13.083-5.479-21.516-5.479c-6.708,0-12.219,1.429-16.535,4.283 c-4.383,2.857-6.574,6.275-6.574,10.26c0,4.251,1.726,7.605,5.18,10.061c3.586,2.657,10.658,5.812,21.217,9.463 c9.827,3.387,16.7,6.144,20.619,8.268c4.184,2.325,7.67,5.646,10.459,9.961c2.789,4.45,4.184,9.397,4.184,14.842 c0,8.302-3.056,14.81-9.164,19.523c2.257-3.12,3.387-7.503,3.387-13.148c0-5.312-1.229-10.026-3.685-14.145 c-2.59-4.184-5.777-7.503-9.563-9.961c-3.852-2.522-10.127-5.212-18.826-8.068c-13.083-4.315-21.615-8.001-25.6-11.057 c-3.984-3.12-5.977-7.969-5.977-14.543c0-7.57,3.054-13.513,9.164-17.83c6.109-4.184,14.775-6.275,25.998-6.275 c7.636,0,16.966,1.329,27.99,3.984v0.697l0.199,3.785c0,1.992,0.065,4.383,0.199,7.172c0.199,3.387,0.299,6.375,0.299,8.965 C434.664,254.645,434.597,256.771,434.465,259.293z"/>
    </g>
  </g>
  <g id="Layer_1" transform="matrix(1, 0, 0, 1, -1.886787, -290.56604)"/>
</svg>